<svg width="16" height="16" viewBox="0 0 16 16" fill="none" xmlns="http://www.w3.org/2000/svg">
<path fill-rule="evenodd" clip-rule="evenodd" d="M11.7546 5.52362C12.0963 5.86532 12.0963 6.41934 11.7546 6.76105L7.68958 10.8261C7.34787 11.1678 6.79385 11.1678 6.45214 10.8261L4.41961 8.79358C4.0779 8.45187 4.0779 7.89785 4.41961 7.55614C4.76132 7.21443 5.31534 7.21443 5.65705 7.55614L7.07086 8.96995L10.5172 5.52362C10.8589 5.18191 11.4129 5.18191 11.7546 5.52362Z" fill="white"/>
<path fill-rule="evenodd" clip-rule="evenodd" d="M9.42679 1.57766C8.83447 0.540684 7.3393 0.540684 6.74698 1.57766C6.37288 2.23258 5.58016 2.52111 4.87261 2.25987C3.75231 1.84624 2.60695 2.80732 2.81975 3.98242C2.95416 4.72459 2.53236 5.45516 1.82242 5.70985C0.698349 6.11311 0.438717 7.58556 1.35708 8.34895C1.93709 8.83109 2.08358 9.66187 1.70345 10.3133C1.10157 11.3448 1.84915 12.6396 3.04335 12.6341C3.79759 12.6306 4.44382 13.1729 4.57135 13.9162C4.77329 15.0933 6.17829 15.6046 7.08956 14.8328C7.66509 14.3453 8.50868 14.3453 9.08422 14.8328C9.99549 15.6046 11.4005 15.0933 11.6024 13.9162C11.73 13.1729 12.3762 12.6306 13.1304 12.6341C14.3246 12.6396 15.0722 11.3448 14.4703 10.3133C14.0902 9.66187 14.2367 8.83109 14.8167 8.34895C15.7351 7.58556 15.4754 6.11311 14.3513 5.70985C13.6414 5.45516 13.2196 4.72459 13.354 3.98242C13.5668 2.80732 12.4215 1.84624 11.3012 2.25987C10.5936 2.52111 9.80089 2.23258 9.42679 1.57766ZM11.7544 6.76121C12.0961 6.4195 12.0961 5.86548 11.7544 5.52378C11.4127 5.18207 10.8587 5.18207 10.517 5.52378L7.07062 8.97011L5.65682 7.5563C5.31511 7.21459 4.76109 7.21459 4.41938 7.5563C4.07767 7.89801 4.07767 8.45203 4.41938 8.79374L6.4519 10.8263C6.616 10.9904 6.83856 11.0825 7.07062 11.0825C7.30269 11.0825 7.52525 10.9904 7.68934 10.8263L11.7544 6.76121Z" fill="#27C07D"/>
</svg>
