<svg width="16" height="16" viewBox="0 0 16 16" fill="none" xmlns="http://www.w3.org/2000/svg">
<path fill-rule="evenodd" clip-rule="evenodd" d="M1.59998 2.64555V6.79793C1.59998 13.2572 7.33168 15.3334 7.82855 15.3334C8.32541 15.3334 14.0571 13.2572 14.0571 6.79793V2.64555C14.0571 2.64555 8.7513 0.800049 7.82855 0.800049C6.9058 0.800049 1.59998 2.64555 1.59998 2.64555ZM7.82855 4.55852C7.86588 4.55852 7.89614 4.52826 7.89614 4.49093C7.89614 4.4536 7.86588 4.42333 7.82855 4.42333C7.79122 4.42333 7.76096 4.4536 7.76096 4.49093C7.76096 4.52826 7.79122 4.55852 7.82855 4.55852ZM7.82855 3.68352C7.38263 3.68352 7.02114 4.04501 7.02114 4.49093C7.02114 4.93684 7.38263 5.29833 7.82855 5.29833C8.27447 5.29833 8.63596 4.93684 8.63596 4.49093C8.63596 4.04501 8.27447 3.68352 7.82855 3.68352ZM7.82864 12.2866C7.3454 12.2866 6.95364 11.8949 6.95364 11.4116V7.72063C6.95364 7.23738 7.3454 6.84563 7.82864 6.84563C8.31189 6.84563 8.70364 7.23738 8.70364 7.72063V11.4116C8.70364 11.8949 8.31189 12.2866 7.82864 12.2866Z" fill="#27C07D"/>
<path fill-rule="evenodd" clip-rule="evenodd" d="M7.89611 4.491C7.89611 4.52833 7.86585 4.55859 7.82852 4.55859C7.79119 4.55859 7.76093 4.52833 7.76093 4.491C7.76093 4.45367 7.79119 4.42341 7.82852 4.42341C7.86585 4.42341 7.89611 4.45367 7.89611 4.491ZM7.02111 4.491C7.02111 4.04508 7.3826 3.68359 7.82852 3.68359C8.27444 3.68359 8.63593 4.04508 8.63593 4.491C8.63593 4.93692 8.27444 5.29841 7.82852 5.29841C7.3826 5.29841 7.02111 4.93692 7.02111 4.491ZM6.95361 11.4117C6.95361 11.895 7.34536 12.2867 7.82861 12.2867C8.31186 12.2867 8.70361 11.895 8.70361 11.4117V7.7207C8.70361 7.23745 8.31186 6.8457 7.82861 6.8457C7.34536 6.8457 6.95361 7.23745 6.95361 7.7207V11.4117Z" fill="white"/>
</svg>
